<svg width="130" height="20" viewBox="0 0 130 20" fill="none" xmlns="http://www.w3.org/2000/svg">
<path d="M16.6667 17.5V15.8333C16.6667 14.9493 16.3155 14.1014 15.6903 13.4763C15.0652 12.8512 14.2174 12.5 13.3333 12.5H6.66666C5.78261 12.5 4.93476 12.8512 4.30964 13.4763C3.68452 14.1014 3.33333 14.9493 3.33333 15.8333V17.5" stroke="#BBBBBB" stroke-width="2" stroke-linecap="round" stroke-linejoin="round"/>
<path d="M10 9.16667C11.841 9.16667 13.3333 7.67428 13.3333 5.83333C13.3333 3.99238 11.841 2.5 10 2.5C8.15906 2.5 6.66667 3.99238 6.66667 5.83333C6.66667 7.67428 8.15906 9.16667 10 9.16667Z" stroke="#BBBBBB" stroke-width="2" stroke-linecap="round" stroke-linejoin="round"/>
<path d="M33.1308 4.81818V12.0966C33.1308 13.3643 32.5243 14.0455 31.4603 14.0455C30.4909 14.0455 29.7899 13.4787 29.7899 12.6136H28.5768C28.5768 14.1797 29.7899 15.1392 31.4603 15.1392C33.2302 15.1392 34.3638 14.0504 34.3638 12.0966V4.81818H33.1308ZM39.7778 15.1591C41.846 15.1591 43.238 13.5881 43.238 11.2216C43.238 8.83523 41.846 7.2642 39.7778 7.2642C37.7096 7.2642 36.3176 8.83523 36.3176 11.2216C36.3176 13.5881 37.7096 15.1591 39.7778 15.1591ZM39.7778 14.1051C38.2068 14.1051 37.4909 12.7528 37.4909 11.2216C37.4909 9.69034 38.2068 8.31818 39.7778 8.31818C41.3488 8.31818 42.0648 9.69034 42.0648 11.2216C42.0648 12.7528 41.3488 14.1051 39.7778 14.1051ZM50.4382 9.07386C50.0703 7.99006 49.245 7.2642 47.7336 7.2642C46.1228 7.2642 44.9296 8.17898 44.9296 9.47159C44.9296 10.5256 45.5561 11.2315 46.958 11.5597L48.2308 11.858C49.0014 12.0369 49.3643 12.4048 49.3643 12.9318C49.3643 13.5881 48.6683 14.125 47.5745 14.125C46.615 14.125 46.0134 13.7124 45.8046 12.892L44.691 13.1705C44.9644 14.468 46.0333 15.1591 47.5944 15.1591C49.3693 15.1591 50.5774 14.1896 50.5774 12.8722C50.5774 11.8082 49.9112 11.1371 48.549 10.804L47.4154 10.5256C46.5106 10.3018 46.1029 9.99858 46.1029 9.41193C46.1029 8.75568 46.799 8.27841 47.7336 8.27841C48.7578 8.27841 49.1803 8.84517 49.3842 9.37216L50.4382 9.07386ZM55.5452 15.1591C57.0964 15.1591 58.2299 14.3835 58.5878 13.2301L57.4543 12.9119C57.156 13.7074 56.465 14.1051 55.5452 14.1051C54.1681 14.1051 53.2185 13.2152 53.1638 11.5795H58.7072V11.0824C58.7072 8.23864 57.0168 7.2642 55.4259 7.2642C53.3577 7.2642 51.9856 8.89489 51.9856 11.2415C51.9856 13.5881 53.3378 15.1591 55.5452 15.1591ZM53.1638 10.5653C53.2434 9.37713 54.0836 8.31818 55.4259 8.31818C56.6986 8.31818 57.514 9.27273 57.514 10.5653H53.1638ZM60.492 17.8636H61.6653V13.8267H61.7647C62.0232 14.2443 62.5204 15.1591 63.992 15.1591C65.901 15.1591 67.2334 13.6278 67.2334 11.2017C67.2334 8.79545 65.901 7.2642 63.9721 7.2642C62.4806 7.2642 62.0232 8.17898 61.7647 8.5767H61.6255V7.36364H60.492V17.8636ZM61.6454 11.1818C61.6454 9.47159 62.401 8.31818 63.8329 8.31818C65.3243 8.31818 66.0601 9.57102 66.0601 11.1818C66.0601 12.8125 65.3045 14.1051 63.8329 14.1051C62.4209 14.1051 61.6454 12.9119 61.6454 11.1818ZM70.1965 10.4062C70.1965 9.07386 71.0466 8.31818 72.205 8.31818C73.3087 8.31818 73.9749 9.0142 73.9749 10.2273V15H75.1482V10.1477C75.1482 8.18395 74.1042 7.2642 72.5431 7.2642C71.34 7.2642 70.6539 7.76633 70.2959 8.55682H70.1965V4.81818H69.0232V15H70.1965V10.4062ZM89.9822 9.90909C89.9822 6.6875 88.093 4.67898 85.4879 4.67898C82.8828 4.67898 80.9936 6.6875 80.9936 9.90909C80.9936 13.1307 82.8828 15.1392 85.4879 15.1392C88.093 15.1392 89.9822 13.1307 89.9822 9.90909ZM88.789 9.90909C88.789 12.554 87.3373 13.9858 85.4879 13.9858C83.6384 13.9858 82.1867 12.554 82.1867 9.90909C82.1867 7.2642 83.6384 5.83239 85.4879 5.83239C87.3373 5.83239 88.789 7.2642 88.789 9.90909ZM93.0695 4.81818H91.8963V15H93.0695V4.81818ZM95.2185 15H96.3918V7.36364H95.2185V15ZM95.8151 6.09091C96.2725 6.09091 96.6503 5.73295 96.6503 5.29545C96.6503 4.85795 96.2725 4.5 95.8151 4.5C95.3577 4.5 94.9799 4.85795 94.9799 5.29545C94.9799 5.73295 95.3577 6.09091 95.8151 6.09091ZM104.785 7.36364H103.512L101.404 13.4489H101.325L99.2169 7.36364H97.9442L100.768 15H101.961L104.785 7.36364ZM109.262 15.1591C110.813 15.1591 111.947 14.3835 112.305 13.2301L111.171 12.9119C110.873 13.7074 110.182 14.1051 109.262 14.1051C107.885 14.1051 106.935 13.2152 106.881 11.5795H112.424V11.0824C112.424 8.23864 110.734 7.2642 109.143 7.2642C107.075 7.2642 105.702 8.89489 105.702 11.2415C105.702 13.5881 107.055 15.1591 109.262 15.1591ZM106.881 10.5653C106.96 9.37713 107.8 8.31818 109.143 8.31818C110.415 8.31818 111.231 9.27273 111.231 10.5653H106.881ZM114.209 15H115.382V7.36364H114.209V15ZM114.805 6.09091C115.263 6.09091 115.641 5.73295 115.641 5.29545C115.641 4.85795 115.263 4.5 114.805 4.5C114.348 4.5 113.97 4.85795 113.97 5.29545C113.97 5.73295 114.348 6.09091 114.805 6.09091ZM117.531 15H118.704V10.1676C118.704 9.13352 119.52 8.37784 120.633 8.37784C120.947 8.37784 121.27 8.4375 121.349 8.45739V7.2642C121.215 7.25426 120.907 7.24432 120.733 7.24432C119.818 7.24432 119.022 7.76136 118.744 8.51705H118.665V7.36364H117.531V15ZM124.987 15.179C126.32 15.179 127.016 14.4631 127.254 13.9659H127.314V15H128.487V9.96875C128.487 7.54261 126.638 7.2642 125.663 7.2642C124.51 7.2642 123.197 7.66193 122.601 9.05398L123.714 9.4517C123.973 8.89489 124.584 8.2983 125.703 8.2983C126.782 8.2983 127.314 8.87003 127.314 9.84943V9.8892C127.314 10.456 126.737 10.4062 125.345 10.5852C123.928 10.7692 122.382 11.0824 122.382 12.8324C122.382 14.3239 123.535 15.179 124.987 15.179ZM125.166 14.125C124.231 14.125 123.555 13.7074 123.555 12.892C123.555 11.9972 124.371 11.7188 125.285 11.5994C125.783 11.5398 127.115 11.4006 127.314 11.1619V12.2358C127.314 13.1903 126.558 14.125 125.166 14.125Z" fill="#BBBBBB"/>
</svg>
